STARTFONT 2.1
FONT -Bitstream-Terminal-Bold-R-Narrow--50-360-100-100-C-180-DEC-DECtech
SIZE 36 100 100
FONTBOUNDINGBOX 18 50 0 -10

STARTPROPERTIES 28
CHARSET_REGISTRY "DEC"
CHARSET_ENCODING "DECtech"
CAP_HEIGHT 30
X_HEIGHT 24
AVERAGE_WIDTH 180
AVG_CAPITAL_WIDTH 180
AVG_LOWERCASE_WIDTH 180
FIGURE_WIDTH 18
SPACING "C"
FONTNAME_REGISTRY ""
FAMILY_NAME "Terminal"
FOUNDRY "Bitstream"
WEIGHT_NAME "Bold"
SETWIDTH_NAME "Narrow"
SLANT "R"
ADD_STYLE_NAME ""
PIXEL_SIZE 50
POINT_SIZE 360
RESOLUTION_X 100
RESOLUTION_Y 100
CHARSET_COLLECTIONS "DEC-DECtech"
FULL_NAME "Terminal Bold Narrow"
COPYRIGHT "Copyright (c) 1988 Bitstream, Inc., Copyright 1991 Digital Equipment Corporation.  All Rights Reserved."
WEIGHT 10
QUAD_WIDTH 13
DEFAULT_CHAR 159
FONT_DESCENT 10
FONT_ASCENT 40
ENDPROPERTIES

CHARS 181

STARTCHAR space
ENCODING 32
SWIDTH 720 0
DWIDTH 18 0
BBX 1 1 0 0
BITMAP
00
ENDCHAR

STARTCHAR exclam
ENCODING 33
SWIDTH 720 0
DWIDTH 18 0
BBX 7 30 5 0
BITMAP
7C
7C
7C
7C
7C
7C
7C
7C
7C
7C
7C
7C
7C
7C
7C
7C
7C
7C
7C
7C
00
00
00
00
7C
7C
FE
FE
7C
7C
ENDCHAR

STARTCHAR quotedbl
ENCODING 34
SWIDTH 720 0
DWIDTH 18 0
BBX 9 14 4 18
BITMAP
E380
E380
E380
E380
E380
E380
E380
E380
E380
E380
E380
E380
E380
E380
ENDCHAR

STARTCHAR numbersign
ENCODING 35
SWIDTH 720 0
DWIDTH 18 0
BBX 15 36 1 -6
BITMAP
1C70
1C70
1C70
1C70
1C70
1C70
1C70
1C70
1C70
1C70
FFFE
FFFE
FFFE
FFFE
1C70
1C70
1C70
1C70
1C70
1C70
FFFE
FFFE
FFFE
FFFE
1C70
1C70
1C70
1C70
1C70
1C70
1C70
1C70
1C70
1C70
1C70
1C70
ENDCHAR

STARTCHAR dollar
ENCODING 36
SWIDTH 720 0
DWIDTH 18 0
BBX 15 38 1 -6
BITMAP
0780
0780
0780
0780
0780
0780
1FEE
1FEE
787E
787E
F03E
F03E
F01E
F01E
FE00
FE00
7FF0
7FF0
1FFC
1FFC
01FE
01FE
001E
001E
F01E
F01E
F03E
F03E
FFFC
FFFC
EFF0
EFF0
0780
0780
0780
0780
0780
0780
ENDCHAR

STARTCHAR percent
ENCODING 37
SWIDTH 720 0
DWIDTH 18 0
BBX 17 32 0 -2
BITMAP
3F8000
3F8000
F1E000
F1E000
F1E000
F1E000
F1E000
F1E000
F1E000
F1E000
3F8700
3F8700
001F00
001F00
00F800
00F800
03C000
03C000
0F0000
0F0000
7CFE00
7CFE00
73C780
73C780
03C780
03C780
03C780
03C780
03C780
03C780
00FE00
00FE00
ENDCHAR

STARTCHAR ampersand
ENCODING 38
SWIDTH 720 0
DWIDTH 18 0
BBX 15 28 1 0
BITMAP
0F60
0F60
1FE0
1FE0
38E0
38E0
3860
3860
3C00
3C00
1E00
1E00
0F00
0F00
3F86
3F86
7BCE
7BCE
F1FE
F1FE
F0F8
F0F8
F878
F878
7FFE
7FFE
1F9E
1F9E
ENDCHAR

STARTCHAR quoteright
ENCODING 39
SWIDTH 720 0
DWIDTH 18 0
BBX 8 12 5 20
BITMAP
1F
1F
3E
3E
3C
3C
78
78
70
70
E0
E0
ENDCHAR

STARTCHAR parenleft
ENCODING 40
SWIDTH 720 0
DWIDTH 18 0
BBX 9 38 4 -6
BITMAP
0380
0380
0F00
0F00
3E00
3E00
3C00
3C00
7800
7800
7800
7800
F000
F000
F000
F000
F000
F000
F000
F000
F000
F000
F000
F000
F000
F000
7800
7800
7800
7800
3C00
3C00
3E00
3E00
0F00
0F00
0380
0380
ENDCHAR

STARTCHAR parenright
ENCODING 41
SWIDTH 720 0
DWIDTH 18 0
BBX 9 38 4 -6
BITMAP
E000
E000
7800
7800
3E00
3E00
1E00
1E00
0F00
0F00
0F00
0F00
0780
0780
0780
0780
0780
0780
0780
0780
0780
0780
0780
0780
0780
0780
0F00
0F00
0F00
0F00
1E00
1E00
3E00
3E00
7800
7800
E000
E000
ENDCHAR

STARTCHAR asterisk
ENCODING 42
SWIDTH 720 0
DWIDTH 18 0
BBX 13 18 2 6
BITMAP
0700
0700
0700
0700
E738
E738
F778
F778
3FE0
3FE0
0F80
0F80
3DE0
3DE0
78F0
78F0
F078
F078
ENDCHAR

STARTCHAR plus
ENCODING 43
SWIDTH 720 0
DWIDTH 18 0
BBX 14 20 1 2
BITMAP
0780
0780
0780
0780
0780
0780
0780
0780
FFFC
FFFC
FFFC
FFFC
0780
0780
0780
0780
0780
0780
0780
0780
ENDCHAR

STARTCHAR comma
ENCODING 44
SWIDTH 720 0
DWIDTH 18 0
BBX 7 10 4 -4
BITMAP
3E
3E
3E
3E
7C
7C
F8
F8
E0
E0
ENDCHAR

STARTCHAR minus
ENCODING 45
SWIDTH 720 0
DWIDTH 18 0
BBX 13 4 2 10
BITMAP
FFF8
FFF8
FFF8
FFF8
ENDCHAR

STARTCHAR period
ENCODING 46
SWIDTH 720 0
DWIDTH 18 0
BBX 7 8 5 0
BITMAP
7C
7C
FE
FE
FE
FE
7C
7C
ENDCHAR

STARTCHAR slash
ENCODING 47
SWIDTH 720 0
DWIDTH 18 0
BBX 15 34 1 -2
BITMAP
003E
003E
003C
003C
007C
007C
00F8
00F8
00F8
00F8
01F0
01F0
03E0
03E0
03C0
03C0
07C0
07C0
0F80
0F80
0F00
0F00
1F00
1F00
3E00
3E00
3C00
3C00
7C00
7C00
7800
7800
F800
F800
ENDCHAR

STARTCHAR zero
ENCODING 48
SWIDTH 720 0
DWIDTH 18 0
BBX 15 30 1 0
BITMAP
07C0
07C0
1FF0
1FF0
3C78
3C78
783C
783C
783C
783C
F01E
F01E
F01E
F01E
F01E
F01E
F01E
F01E
F01E
F01E
783C
783C
783C
783C
3C78
3C78
1FF0
1FF0
07C0
07C0
ENDCHAR

STARTCHAR one
ENCODING 49
SWIDTH 720 0
DWIDTH 18 0
BBX 13 30 2 0
BITMAP
0380
0380
0F80
0F80
3F80
3F80
F780
F780
C780
C780
0780
0780
0780
0780
0780
0780
0780
0780
0780
0780
0780
0780
0780
0780
0780
0780
7FF8
7FF8
7FF8
7FF8
ENDCHAR

STARTCHAR two
ENCODING 50
SWIDTH 720 0
DWIDTH 18 0
BBX 14 30 1 0
BITMAP
1FE0
1FE0
7FF8
7FF8
F07C
F07C
E03C
E03C
E03C
E03C
0078
0078
00F0
00F0
01E0
01E0
03C0
03C0
0F00
0F00
1E00
1E00
3C00
3C00
781C
781C
FFFC
FFFC
FFFC
FFFC
ENDCHAR

STARTCHAR three
ENCODING 51
SWIDTH 720 0
DWIDTH 18 0
BBX 14 30 1 0
BITMAP
3FE0
3FE0
FFF8
FFF8
F07C
F07C
003C
003C
003C
003C
0078
0078
0FE0
0FE0
0FF8
0FF8
0078
0078
003C
003C
003C
003C
003C
003C
F078
F078
FFF8
FFF8
3FE0
3FE0
ENDCHAR

STARTCHAR four
ENCODING 52
SWIDTH 720 0
DWIDTH 18 0
BBX 15 30 1 0
BITMAP
0070
0070
01F0
01F0
03F0
03F0
0770
0770
0E70
0E70
1C70
1C70
3870
3870
7070
7070
E070
E070
FFFE
FFFE
FFFE
FFFE
0070
0070
0070
0070
03FC
03FC
03FC
03FC
ENDCHAR

STARTCHAR five
ENCODING 53
SWIDTH 720 0
DWIDTH 18 0
BBX 14 30 1 0
BITMAP
7FFC
7FFC
7FFC
7FFC
7000
7000
7000
7000
7000
7000
7000
7000
7FE0
7FE0
7FF8
7FF8
007C
007C
003C
003C
003C
003C
003C
003C
F07C
F07C
FFF8
FFF8
1FE0
1FE0
ENDCHAR

STARTCHAR six
ENCODING 54
SWIDTH 720 0
DWIDTH 18 0
BBX 15 30 1 0
BITMAP
00F8
00F8
07F8
07F8
1F00
1F00
3C00
3C00
7800
7800
7800
7800
FFF0
FFF0
FFFC
FFFC
F83C
F83C
F01E
F01E
F01E
F01E
F01E
F01E
783C
783C
7FFC
7FFC
1FF0
1FF0
ENDCHAR

STARTCHAR seven
ENCODING 55
SWIDTH 720 0
DWIDTH 18 0
BBX 15 30 1 0
BITMAP
FFFE
FFFE
FFFE
FFFE
E01E
E01E
E03C
E03C
003C
003C
0078
0078
0078
0078
00F0
00F0
00F0
00F0
01E0
01E0
01E0
01E0
01C0
01C0
03C0
03C0
0780
0780
0780
0780
ENDCHAR

STARTCHAR eight
ENCODING 56
SWIDTH 720 0
DWIDTH 18 0
BBX 15 30 1 0
BITMAP
0FE0
0FE0
3FF8
3FF8
783C
783C
F01E
F01E
F01E
F01E
783C
783C
1FF0
1FF0
7FFC
7FFC
783C
783C
F01E
F01E
F01E
F01E
F01E
F01E
783C
783C
7FFC
7FFC
1FF0
1FF0
ENDCHAR

STARTCHAR nine
ENCODING 57
SWIDTH 720 0
DWIDTH 18 0
BBX 15 30 1 0
BITMAP
1FF0
1FF0
7FFC
7FFC
783C
783C
F01E
F01E
F01E
F01E
F01E
F01E
F83E
F83E
7FFE
7FFE
1FFE
1FFE
003C
003C
003C
003C
0078
0078
00F8
00F8
7FE0
7FE0
7F80
7F80
ENDCHAR

STARTCHAR colon
ENCODING 58
SWIDTH 720 0
DWIDTH 18 0
BBX 7 20 5 0
BITMAP
7C
7C
FE
FE
7C
7C
00
00
00
00
00
00
00
00
7C
7C
FE
FE
7C
7C
ENDCHAR

STARTCHAR semicolon
ENCODING 59
SWIDTH 720 0
DWIDTH 18 0
BBX 8 24 4 -4
BITMAP
3E
3E
7F
7F
3E
3E
00
00
00
00
00
00
00
00
3E
3E
3E
3E
7C
7C
F8
F8
E0
E0
ENDCHAR

STARTCHAR less
ENCODING 60
SWIDTH 720 0
DWIDTH 18 0
BBX 12 24 2 0
BITMAP
0070
0070
01F0
01F0
07E0
07E0
1F80
1F80
7E00
7E00
F800
F800
7C00
7C00
3F00
3F00
0F80
0F80
03E0
03E0
01F0
01F0
0070
0070
ENDCHAR

STARTCHAR equal
ENCODING 61
SWIDTH 720 0
DWIDTH 18 0
BBX 13 14 2 4
BITMAP
FFF8
FFF8
FFF8
FFF8
0000
0000
0000
0000
0000
0000
FFF8
FFF8
FFF8
FFF8
ENDCHAR

STARTCHAR greater
ENCODING 62
SWIDTH 720 0
DWIDTH 18 0
BBX 12 24 3 0
BITMAP
E000
E000
F800
F800
7E00
7E00
1F80
1F80
07E0
07E0
01F0
01F0
03E0
03E0
0FC0
0FC0
1F00
1F00
7C00
7C00
F800
F800
E000
E000
ENDCHAR

STARTCHAR question
ENCODING 63
SWIDTH 720 0
DWIDTH 18 0
BBX 15 30 1 0
BITMAP
1FF0
1FF0
7FFC
7FFC
F83E
F83E
F03E
F03E
007E
007E
00FC
00FC
03F0
03F0
07C0
07C0
0780
0780
0780
0780
0000
0000
0000
0000
07C0
07C0
0FE0
0FE0
07C0
07C0
ENDCHAR

STARTCHAR at
ENCODING 64
SWIDTH 720 0
DWIDTH 18 0
BBX 15 36 1 -6
BITMAP
0FE0
0FE0
7FF8
7FF8
7038
7038
E01C
E01C
E01C
E01C
E01C
E01C
E3FC
E3FC
E7FC
E7FC
E73C
E73C
E73C
E73C
E73C
E73C
E7FE
E7FE
E3EE
E3EE
E000
E000
E000
E000
701E
701E
7FFE
7FFE
0FF0
0FF0
ENDCHAR

STARTCHAR A
ENCODING 65
SWIDTH 720 0
DWIDTH 18 0
BBX 14 30 1 0
BITMAP
0300
0300
0FC0
0FC0
0FC0
0FC0
1FE0
1FE0
3CF0
3CF0
3870
3870
7878
7878
7878
7878
7038
7038
FFFC
FFFC
FFFC
FFFC
F03C
F03C
F03C
F03C
F03C
F03C
F03C
F03C
ENDCHAR

STARTCHAR B
ENCODING 66
SWIDTH 720 0
DWIDTH 18 0
BBX 14 30 1 0
BITMAP
FFE0
FFE0
FFF8
FFF8
F07C
F07C
F03C
F03C
F03C
F03C
F07C
F07C
FFF8
FFF8
FFF0
FFF0
F078
F078
F03C
F03C
F03C
F03C
F03C
F03C
F07C
F07C
FFF8
FFF8
FFE0
FFE0
ENDCHAR

STARTCHAR C
ENCODING 67
SWIDTH 720 0
DWIDTH 18 0
BBX 15 30 1 0
BITMAP
0FEE
0FEE
3FFE
3FFE
781E
781E
701E
701E
F000
F000
F000
F000
F000
F000
F000
F000
F000
F000
F000
F000
F000
F000
7000
7000
781E
781E
3FFE
3FFE
0FF0
0FF0
ENDCHAR

STARTCHAR D
ENCODING 68
SWIDTH 720 0
DWIDTH 18 0
BBX 15 30 1 0
BITMAP
FFE0
FFE0
FFF8
FFF8
F07C
F07C
F03C
F03C
F03E
F03E
F01E
F01E
F01E
F01E
F01E
F01E
F01E
F01E
F01E
F01E
F03E
F03E
F03C
F03C
F07C
F07C
FFF8
FFF8
FFE0
FFE0
ENDCHAR

STARTCHAR E
ENCODING 69
SWIDTH 720 0
DWIDTH 18 0
BBX 13 30 2 0
BITMAP
FFF8
FFF8
FFF8
FFF8
F000
F000
F000
F000
F000
F000
F000
F000
FFF0
FFF0
FFF0
FFF0
F000
F000
F000
F000
F000
F000
F000
F000
F000
F000
FFF8
FFF8
FFF8
FFF8
ENDCHAR

STARTCHAR F
ENCODING 70
SWIDTH 720 0
DWIDTH 18 0
BBX 13 30 2 0
BITMAP
FFF8
FFF8
FFF8
FFF8
F000
F000
F000
F000
F000
F000
F000
F000
FFE0
FFE0
FFE0
FFE0
F000
F000
F000
F000
F000
F000
F000
F000
F000
F000
F000
F000
F000
F000
ENDCHAR

STARTCHAR G
ENCODING 71
SWIDTH 720 0
DWIDTH 18 0
BBX 15 30 1 0
BITMAP
0FEE
0FEE
3FFE
3FFE
781E
781E
700E
700E
F00E
F00E
F000
F000
F000
F000
F0FE
F0FE
F0FE
F0FE
F01E
F01E
F01E
F01E
701E
701E
783E
783E
3FFE
3FFE
0FF0
0FF0
ENDCHAR

STARTCHAR H
ENCODING 72
SWIDTH 720 0
DWIDTH 18 0
BBX 15 30 1 0
BITMAP
F01E
F01E
F01E
F01E
F01E
F01E
F01E
F01E
F01E
F01E
F01E
F01E
FFFE
FFFE
FFFE
FFFE
F01E
F01E
F01E
F01E
F01E
F01E
F01E
F01E
F01E
F01E
F01E
F01E
F01E
F01E
ENDCHAR

STARTCHAR I
ENCODING 73
SWIDTH 720 0
DWIDTH 18 0
BBX 14 30 1 0
BITMAP
FFFC
FFFC
FFFC
FFFC
0780
0780
0780
0780
0780
0780
0780
0780
0780
0780
0780
0780
0780
0780
0780
0780
0780
0780
0780
0780
0780
0780
FFFC
FFFC
FFFC
FFFC
ENDCHAR

STARTCHAR J
ENCODING 74
SWIDTH 720 0
DWIDTH 18 0
BBX 15 30 1 0
BITMAP
1FFE
1FFE
1FFE
1FFE
00F0
00F0
00F0
00F0
00F0
00F0
00F0
00F0
00F0
00F0
00F0
00F0
00F0
00F0
F0F0
F0F0
F0F0
F0F0
F0F0
F0F0
70E0
70E0
7FE0
7FE0
1F80
1F80
ENDCHAR

STARTCHAR K
ENCODING 75
SWIDTH 720 0
DWIDTH 18 0
BBX 15 30 1 0
BITMAP
F03C
F03C
F07C
F07C
F0F0
F0F0
F1E0
F1E0
F3C0
F3C0
F780
F780
FF00
FF00
FF00
FF00
FF80
FF80
F7C0
F7C0
F3F0
F3F0
F0F8
F0F8
F07C
F07C
F03E
F03E
F01E
F01E
ENDCHAR

STARTCHAR L
ENCODING 76
SWIDTH 720 0
DWIDTH 18 0
BBX 12 30 4 0
BITMAP
F000
F000
F000
F000
F000
F000
F000
F000
F000
F000
F000
F000
F000
F000
F000
F000
F000
F000
F000
F000
F000
F000
F000
F000
F000
F000
FFF0
FFF0
FFF0
FFF0
ENDCHAR

STARTCHAR M
ENCODING 77
SWIDTH 720 0
DWIDTH 18 0
BBX 15 30 1 0
BITMAP
F01E
F01E
F01E
F01E
F83E
F83E
F83E
F83E
FC7E
FC7E
FC7E
FC7E
FEFE
FEFE
F7DE
F7DE
F7DE
F7DE
F39E
F39E
F39E
F39E
F39E
F39E
F01E
F01E
F01E
F01E
F01E
F01E
ENDCHAR

STARTCHAR N
ENCODING 78
SWIDTH 720 0
DWIDTH 18 0
BBX 15 30 1 0
BITMAP
F81E
F81E
F81E
F81E
FC1E
FC1E
FE1E
FE1E
FE1E
FE1E
FF1E
FF1E
F71E
F71E
F39E
F39E
F1DE
F1DE
F1FE
F1FE
F0FE
F0FE
F07E
F07E
F07E
F07E
F03E
F03E
F03E
F03E
ENDCHAR

STARTCHAR O
ENCODING 79
SWIDTH 720 0
DWIDTH 18 0
BBX 15 30 1 0
BITMAP
0FE0
0FE0
7FFC
7FFC
783C
783C
F01E
F01E
F01E
F01E
F01E
F01E
F01E
F01E
F01E
F01E
F01E
F01E
F01E
F01E
F01E
F01E
F01E
F01E
783C
783C
7FFC
7FFC
0FE0
0FE0
ENDCHAR

STARTCHAR P
ENCODING 80
SWIDTH 720 0
DWIDTH 18 0
BBX 15 30 1 0
BITMAP
FFF0
FFF0
FFFC
FFFC
F03E
F03E
F01E
F01E
F01E
F01E
F01E
F01E
F03E
F03E
FFFC
FFFC
FFF0
FFF0
F000
F000
F000
F000
F000
F000
F000
F000
F000
F000
F000
F000
ENDCHAR

STARTCHAR Q
ENCODING 81
SWIDTH 720 0
DWIDTH 18 0
BBX 15 38 1 -8
BITMAP
0FE0
0FE0
7FFC
7FFC
783C
783C
F01E
F01E
F01E
F01E
F01E
F01E
F01E
F01E
F01E
F01E
F01E
F01E
F01E
F01E
F01E
F01E
F01E
F01E
783C
783C
7FFC
7FFC
0FE0
0FE0
1C00
1C00
3FCE
3FCE
77FE
77FE
61FC
61FC
ENDCHAR

STARTCHAR R
ENCODING 82
SWIDTH 720 0
DWIDTH 18 0
BBX 15 30 1 0
BITMAP
FFF0
FFF0
FFFC
FFFC
F03E
F03E
F01E
F01E
F01E
F01E
F01E
F01E
F03C
F03C
FFF8
FFF8
FFE0
FFE0
F1E0
F1E0
F0F0
F0F0
F070
F070
F078
F078
F03E
F03E
F03E
F03E
ENDCHAR

STARTCHAR S
ENCODING 83
SWIDTH 720 0
DWIDTH 18 0
BBX 15 30 1 0
BITMAP
1FDE
1FDE
7FFE
7FFE
F81E
F81E
F01E
F01E
F000
F000
F800
F800
7F80
7F80
1FF0
1FF0
03FC
03FC
007C
007C
001E
001E
F01E
F01E
F03E
F03E
FFFC
FFFC
EFF0
EFF0
ENDCHAR

STARTCHAR T
ENCODING 84
SWIDTH 720 0
DWIDTH 18 0
BBX 14 30 2 0
BITMAP
FFFC
FFFC
FFFC
FFFC
0780
0780
0780
0780
0780
0780
0780
0780
0780
0780
0780
0780
0780
0780
0780
0780
0780
0780
0780
0780
0780
0780
0780
0780
0780
0780
ENDCHAR

STARTCHAR U
ENCODING 85
SWIDTH 720 0
DWIDTH 18 0
BBX 15 30 1 0
BITMAP
F01E
F01E
F01E
F01E
F01E
F01E
F01E
F01E
F01E
F01E
F01E
F01E
F01E
F01E
F01E
F01E
F01E
F01E
F01E
F01E
F01E
F01E
F01E
F01E
F83E
F83E
7FFC
7FFC
1FF0
1FF0
ENDCHAR

STARTCHAR V
ENCODING 86
SWIDTH 720 0
DWIDTH 18 0
BBX 15 30 1 0
BITMAP
F01E
F01E
F01E
F01E
F01E
F01E
F01E
F01E
F01E
F01E
F01E
F01E
F01E
F01E
F01E
F01E
701C
701C
783C
783C
783C
783C
3C78
3C78
1FF0
1FF0
0FE0
0FE0
0380
0380
ENDCHAR

STARTCHAR W
ENCODING 87
SWIDTH 720 0
DWIDTH 18 0
BBX 15 30 1 0
BITMAP
F01E
F01E
F01E
F01E
F01E
F01E
F01E
F01E
F01E
F01E
F39E
F39E
F39E
F39E
F39E
F39E
F7DE
F7DE
FFFE
FFFE
FC7E
FC7E
F83E
F83E
783C
783C
701C
701C
701C
701C
ENDCHAR

STARTCHAR X
ENCODING 88
SWIDTH 720 0
DWIDTH 18 0
BBX 15 30 1 0
BITMAP
F01E
F01E
F83E
F83E
783C
783C
3C78
3C78
1EF0
1EF0
0FE0
0FE0
0FE0
0FE0
07C0
07C0
0FE0
0FE0
1FF0
1FF0
1EF0
1EF0
3C78
3C78
7C7C
7C7C
F83E
F83E
F83E
F83E
ENDCHAR

STARTCHAR Y
ENCODING 89
SWIDTH 720 0
DWIDTH 18 0
BBX 16 30 1 0
BITMAP
F81F
F81F
F81F
F81F
781E
781E
7C3E
7C3E
3C3C
3C3C
1E78
1E78
0FF0
0FF0
07E0
07E0
03C0
03C0
03C0
03C0
03C0
03C0
03C0
03C0
03C0
03C0
03C0
03C0
03C0
03C0
ENDCHAR

STARTCHAR Z
ENCODING 90
SWIDTH 720 0
DWIDTH 18 0
BBX 15 30 1 0
BITMAP
FFFC
FFFC
FFFC
FFFC
E078
E078
E0F0
E0F0
E1E0
E1E0
03C0
03C0
03C0
03C0
0780
0780
0F00
0F00
1E00
1E00
1E0E
1E0E
3C0E
3C0E
780E
780E
FFFE
FFFE
FFFE
FFFE
ENDCHAR

STARTCHAR bracketleft
ENCODING 91
SWIDTH 720 0
DWIDTH 18 0
BBX 7 38 5 -6
BITMAP
FE
FE
FE
FE
F0
F0
F0
F0
F0
F0
F0
F0
F0
F0
F0
F0
F0
F0
F0
F0
F0
F0
F0
F0
F0
F0
F0
F0
F0
F0
F0
F0
F0
F0
FE
FE
FE
FE
ENDCHAR

STARTCHAR backslash
ENCODING 92
SWIDTH 720 0
DWIDTH 18 0
BBX 15 34 1 -2
BITMAP
F800
F800
7800
7800
7C00
7C00
3E00
3E00
3E00
3E00
1F00
1F00
0F80
0F80
0780
0780
07C0
07C0
03E0
03E0
01E0
01E0
01F0
01F0
00F8
00F8
0078
0078
007C
007C
003C
003C
003E
003E
ENDCHAR

STARTCHAR bracketright
ENCODING 93
SWIDTH 720 0
DWIDTH 18 0
BBX 7 38 4 -6
BITMAP
FE
FE
FE
FE
1E
1E
1E
1E
1E
1E
1E
1E
1E
1E
1E
1E
1E
1E
1E
1E
1E
1E
1E
1E
1E
1E
1E
1E
1E
1E
1E
1E
1E
1E
FE
FE
FE
FE
ENDCHAR

STARTCHAR asciicircum
ENCODING 94
SWIDTH 720 0
DWIDTH 18 0
BBX 13 12 2 10
BITMAP
0700
0700
0F80
0F80
3FE0
3FE0
78F0
78F0
F078
F078
E038
E038
ENDCHAR

STARTCHAR ldblank
ENCODING 95
SWIDTH 720 0
DWIDTH 18 0
BBX 1 1 0 0
BITMAP
00
ENDCHAR

STARTCHAR diamond
ENCODING 96
SWIDTH 720 0
DWIDTH 18 0
BBX 16 30 0 2
BITMAP
0180
0180
03C0
03C0
07E0
07E0
0FF0
0FF0
1FF8
1FF8
3FFC
3FFC
7FFE
7FFE
FFFF
FFFF
7FFE
7FFE
3FFC
3FFC
1FF8
1FF8
0FF0
0FF0
07E0
07E0
03C0
03C0
0180
0180
ENDCHAR

STARTCHAR checkerboard
ENCODING 97
SWIDTH 720 0
DWIDTH 9 0
BBX 18 50 0 -10
BITMAP
AAAA80
555540
AAAA80
555540
AAAA80
555540
AAAA80
555540
AAAA80
555540
AAAA80
555540
AAAA80
555540
AAAA80
555540
AAAA80
555540
AAAA80
555540
AAAA80
555540
AAAA80
555540
AAAA80
555540
AAAA80
555540
AAAA80
555540
AAAA80
555540
AAAA80
555540
AAAA80
555540
AAAA80
555540
AAAA80
555540
AAAA80
555540
AAAA80
555540
AAAA80
555540
AAAA80
555540
AAAA80
555540
ENDCHAR

STARTCHAR HT
ENCODING 98
SWIDTH 720 0
DWIDTH 18 0
BBX 15 36 1 -2
BITMAP
F3C0
F3C0
F3C0
F3C0
F3C0
F3C0
FFC0
FFC0
FFC0
FFC0
F3C0
F3C0
F3C0
F3C0
F3C0
F3C0
0000
0000
0000
0000
07FE
07FE
07FE
07FE
00F0
00F0
00F0
00F0
00F0
00F0
00F0
00F0
00F0
00F0
00F0
00F0
ENDCHAR

STARTCHAR FF
ENCODING 99
SWIDTH 720 0
DWIDTH 18 0
BBX 12 36 2 -2
BITMAP
FE00
FE00
FE00
FE00
F000
F000
FE00
FE00
FE00
FE00
F000
F000
F000
F000
F000
F000
0000
0000
0000
0000
07F0
07F0
07F0
07F0
0780
0780
07F0
07F0
07F0
07F0
0780
0780
0780
0780
0780
0780
ENDCHAR

STARTCHAR CR
ENCODING 100
SWIDTH 720 0
DWIDTH 18 0
BBX 13 36 1 -2
BITMAP
3F80
3F80
7FC0
7FC0
F9C0
F9C0
F000
F000
F000
F000
F9C0
F9C0
7FC0
7FC0
3F00
3F00
0000
0000
0000
0000
0FF0
0FF0
0FF8
0FF8
0F38
0F38
0F38
0F38
0FF0
0FF0
0FF0
0FF0
0F78
0F78
0F38
0F38
ENDCHAR

STARTCHAR LF
ENCODING 101
SWIDTH 720 0
DWIDTH 18 0
BBX 12 36 2 -2
BITMAP
F000
F000
F000
F000
F000
F000
F000
F000
F000
F000
F000
F000
FF00
FF00
FF00
FF00
0000
0000
0000
0000
07F0
07F0
07F0
07F0
0780
0780
07F0
07F0
07F0
07F0
0780
0780
0780
0780
0780
0780
ENDCHAR

STARTCHAR degree
ENCODING 102
SWIDTH 720 0
DWIDTH 18 0
BBX 13 16 1 14
BITMAP
3FE0
3FE0
7DF0
7DF0
F8F8
F8F8
F078
F078
F078
F078
F8F8
F8F8
7DF0
7DF0
3FE0
3FE0
ENDCHAR

STARTCHAR plusminus
ENCODING 103
SWIDTH 720 0
DWIDTH 18 0
BBX 14 28 1 0
BITMAP
0780
0780
0780
0780
0780
0780
0780
0780
FFFC
FFFC
FFFC
FFFC
0780
0780
0780
0780
0780
0780
0780
0780
0000
0000
0000
0000
FFFC
FFFC
FFFC
FFFC
ENDCHAR

STARTCHAR NL
ENCODING 104
SWIDTH 720 0
DWIDTH 18 0
BBX 12 36 2 -2
BITMAP
E180
E180
F180
F180
F980
F980
FD80
FD80
DF80
DF80
CF80
CF80
C780
C780
C380
C380
0000
0000
0000
0000
0780
0780
0780
0780
0780
0780
0780
0780
0780
0780
0780
0780
07F0
07F0
07F0
07F0
ENDCHAR

STARTCHAR VT
ENCODING 105
SWIDTH 720 0
DWIDTH 18 0
BBX 15 36 1 -2
BITMAP
F0E0
F0E0
F0E0
F0E0
71C0
71C0
79C0
79C0
3B80
3B80
3F80
3F80
1F00
1F00
0E00
0E00
0000
0000
0000
0000
07FE
07FE
07FE
07FE
00F0
00F0
00F0
00F0
00F0
00F0
00F0
00F0
00F0
00F0
00F0
00F0
ENDCHAR

STARTCHAR ldcornsqlr
ENCODING 106
SWIDTH 720 0
DWIDTH 18 0
BBX 11 28 0 12
BITMAP
01E0
01E0
01E0
01E0
01E0
01E0
01E0
01E0
01E0
01E0
01E0
01E0
01E0
01E0
01E0
01E0
01E0
01E0
01E0
01E0
01E0
01E0
01E0
01E0
FFE0
FFE0
FFE0
FFE0
ENDCHAR

STARTCHAR ldcornsqur
ENCODING 107
SWIDTH 720 0
DWIDTH 18 0
BBX 11 26 0 -10
BITMAP
FFE0
FFE0
FFE0
FFE0
01E0
01E0
01E0
01E0
01E0
01E0
01E0
01E0
01E0
01E0
01E0
01E0
01E0
01E0
01E0
01E0
01E0
01E0
01E0
01E0
01E0
01E0
ENDCHAR

STARTCHAR ldcornsqul
ENCODING 108
SWIDTH 720 0
DWIDTH 18 0
BBX 11 26 7 -10
BITMAP
FFE0
FFE0
FFE0
FFE0
F000
F000
F000
F000
F000
F000
F000
F000
F000
F000
F000
F000
F000
F000
F000
F000
F000
F000
F000
F000
F000
F000
ENDCHAR

STARTCHAR ldcornsqll
ENCODING 109
SWIDTH 720 0
DWIDTH 18 0
BBX 11 28 7 12
BITMAP
F000
F000
F000
F000
F000
F000
F000
F000
F000
F000
F000
F000
F000
F000
F000
F000
F000
F000
F000
F000
F000
F000
F000
F000
FFE0
FFE0
FFE0
FFE0
ENDCHAR

STARTCHAR ldcross
ENCODING 110
SWIDTH 720 0
DWIDTH 18 0
BBX 18 50 0 -10
BITMAP
01E000
01E000
01E000
01E000
01E000
01E000
01E000
01E000
01E000
01E000
01E000
01E000
01E000
01E000
01E000
01E000
01E000
01E000
01E000
01E000
01E000
01E000
01E000
01E000
FFFFC0
FFFFC0
FFFFC0
FFFFC0
01E000
01E000
01E000
01E000
01E000
01E000
01E000
01E000
01E000
01E000
01E000
01E000
01E000
01E000
01E000
01E000
01E000
01E000
01E000
01E000
01E000
01E000
ENDCHAR

STARTCHAR ldscan1
ENCODING 111
SWIDTH 720 0
DWIDTH 18 0
BBX 18 4 0 34
BITMAP
FFFFC0
FFFFC0
FFFFC0
FFFFC0
ENDCHAR

STARTCHAR ldscan3
ENCODING 112
SWIDTH 720 0
DWIDTH 18 0
BBX 18 4 0 22
BITMAP
FFFFC0
FFFFC0
FFFFC0
FFFFC0
ENDCHAR

STARTCHAR ldhorizontal
ENCODING 113
SWIDTH 720 0
DWIDTH 18 0
BBX 18 4 0 12
BITMAP
FFFFC0
FFFFC0
FFFFC0
FFFFC0
ENDCHAR

STARTCHAR ldscan7
ENCODING 114
SWIDTH 720 0
DWIDTH 18 0
BBX 18 4 0 0
BITMAP
FFFFC0
FFFFC0
FFFFC0
FFFFC0
ENDCHAR

STARTCHAR ldscan9
ENCODING 115
SWIDTH 720 0
DWIDTH 18 0
BBX 18 4 0 -10
BITMAP
FFFFC0
FFFFC0
FFFFC0
FFFFC0
ENDCHAR

STARTCHAR ldteelft
ENCODING 116
SWIDTH 720 0
DWIDTH 18 0
BBX 11 50 7 -10
BITMAP
F000
F000
F000
F000
F000
F000
F000
F000
F000
F000
F000
F000
F000
F000
F000
F000
F000
F000
F000
F000
F000
F000
F000
F000
FFE0
FFE0
FFE0
FFE0
F000
F000
F000
F000
F000
F000
F000
F000
F000
F000
F000
F000
F000
F000
F000
F000
F000
F000
F000
F000
F000
F000
ENDCHAR

STARTCHAR ldteert
ENCODING 117
SWIDTH 720 0
DWIDTH 18 0
BBX 11 50 0 -10
BITMAP
01E0
01E0
01E0
01E0
01E0
01E0
01E0
01E0
01E0
01E0
01E0
01E0
01E0
01E0
01E0
01E0
01E0
01E0
01E0
01E0
01E0
01E0
01E0
01E0
FFE0
FFE0
FFE0
FFE0
01E0
01E0
01E0
01E0
01E0
01E0
01E0
01E0
01E0
01E0
01E0
01E0
01E0
01E0
01E0
01E0
01E0
01E0
01E0
01E0
01E0
01E0
ENDCHAR

STARTCHAR ldteebt
ENCODING 118
SWIDTH 720 0
DWIDTH 18 0
BBX 18 28 0 12
BITMAP
01E000
01E000
01E000
01E000
01E000
01E000
01E000
01E000
01E000
01E000
01E000
01E000
01E000
01E000
01E000
01E000
01E000
01E000
01E000
01E000
01E000
01E000
01E000
01E000
FFFFC0
FFFFC0
FFFFC0
FFFFC0
ENDCHAR

STARTCHAR ldteetp
ENCODING 119
SWIDTH 720 0
DWIDTH 18 0
BBX 18 26 0 -10
BITMAP
FFFFC0
FFFFC0
FFFFC0
FFFFC0
01E000
01E000
01E000
01E000
01E000
01E000
01E000
01E000
01E000
01E000
01E000
01E000
01E000
01E000
01E000
01E000
01E000
01E000
01E000
01E000
01E000
01E000
ENDCHAR

STARTCHAR ldvertical
ENCODING 120
SWIDTH 720 0
DWIDTH 18 0
BBX 4 50 7 -10
BITMAP
F0
F0
F0
F0
F0
F0
F0
F0
F0
F0
F0
F0
F0
F0
F0
F0
F0
F0
F0
F0
F0
F0
F0
F0
F0
F0
F0
F0
F0
F0
F0
F0
F0
F0
F0
F0
F0
F0
F0
F0
F0
F0
F0
F0
F0
F0
F0
F0
F0
F0
ENDCHAR

STARTCHAR lessequal
ENCODING 121
SWIDTH 720 0
DWIDTH 18 0
BBX 14 28 1 0
BITMAP
001C
001C
00FC
00FC
07FC
07FC
3FC0
3FC0
FC00
FC00
FC00
FC00
3FC0
3FC0
07FC
07FC
00FC
00FC
001C
001C
0000
0000
FFFC
FFFC
FFFC
FFFC
FFFC
FFFC
ENDCHAR

STARTCHAR greaterequal
ENCODING 122
SWIDTH 720 0
DWIDTH 18 0
BBX 14 28 1 0
BITMAP
E000
E000
FC00
FC00
FF80
FF80
0FF0
0FF0
00FC
00FC
00FC
00FC
0FF0
0FF0
FF80
FF80
FC00
FC00
E000
E000
0000
0000
FFFC
FFFC
FFFC
FFFC
FFFC
FFFC
ENDCHAR

STARTCHAR pi
ENCODING 123
SWIDTH 720 0
DWIDTH 18 0
BBX 15 24 1 0
BITMAP
FFFE
FFFE
FFFE
FFFE
3C78
3C78
3C78
3C78
3C78
3C78
7CF8
7CF8
78F0
78F0
78F0
78F0
78F0
78F0
F9F0
F9F0
F9F0
F9F0
F9F0
F9F0
ENDCHAR

STARTCHAR notequal
ENCODING 124
SWIDTH 720 0
DWIDTH 18 0
BBX 14 26 1 -2
BITMAP
0070
0070
00F0
00F0
00E0
00E0
FFFC
FFFC
FFFC
FFFC
0380
0380
0700
0700
0E00
0E00
FFFC
FFFC
FFFC
FFFC
1C00
1C00
3800
3800
3800
3800
ENDCHAR

STARTCHAR sterling
ENCODING 125
SWIDTH 720 0
DWIDTH 18 0
BBX 14 30 1 0
BITMAP
07F0
07F0
1FFC
1FFC
3F3C
3F3C
3E1C
3E1C
3E00
3E00
1F00
1F00
FFF0
FFF0
FFF0
FFF0
0780
0780
0780
0780
0F80
0F80
1F0C
1F0C
FFFC
FFFC
FFFC
FFFC
F1F0
F1F0
ENDCHAR

STARTCHAR periodcentered
ENCODING 126
SWIDTH 720 0
DWIDTH 18 0
BBX 5 10 6 8
BITMAP
70
70
F8
F8
F8
F8
F8
F8
70
70
ENDCHAR

STARTCHAR Error
ENCODING 159
SWIDTH 720 0
DWIDTH 18 0
BBX 17 50 0 -10
BITMAP
0FFC00
0FFC00
3FFF00
3FFF00
7FFF80
7FFF80
FC1F80
FC1F80
F80F80
F80F80
F80F80
F80F80
FC0F80
FC0F80
FE0000
FE0000
7F0000
7F0000
3F8000
3F8000
1FC000
1FC000
0FE000
0FE000
07E000
07E000
07E000
07E000
07E000
07E000
07E000
07E000
000000
000000
000000
000000
000000
000000
03C000
03C000
07E000
07E000
0FF000
0FF000
0FF000
0FF000
07E000
07E000
03C000
03C000
ENDCHAR

STARTCHAR ldradicalbt
ENCODING 161
SWIDTH 720 0
DWIDTH 18 0
BBX 10 38 0 2
BITMAP
03C0
03C0
03C0
03C0
03C0
03C0
03C0
03C0
03C0
03C0
03C0
03C0
03C0
03C0
03C0
03C0
43C0
43C0
E3C0
E3C0
F3C0
F3C0
FBC0
FBC0
FFC0
FFC0
BFC0
BFC0
1FC0
1FC0
0FC0
0FC0
07C0
07C0
03C0
03C0
01C0
01C0
ENDCHAR

STARTCHAR ldradicaltp
ENCODING 162
SWIDTH 720 0
DWIDTH 18 0
BBX 12 26 6 -10
BITMAP
FFF0
FFF0
FFF0
FFF0
F000
F000
F000
F000
F000
F000
F000
F000
F000
F000
F000
F000
F000
F000
F000
F000
F000
F000
F000
F000
F000
F000
ENDCHAR

STARTCHAR ldhorizontal
ENCODING 163
SWIDTH 720 0
DWIDTH 18 0
BBX 18 4 0 12
BITMAP
FFFFC0
FFFFC0
FFFFC0
FFFFC0
ENDCHAR

STARTCHAR ldintegraltp
ENCODING 164
SWIDTH 720 0
DWIDTH 18 0
BBX 9 46 6 -10
BITMAP
1F80
1F80
7F80
7F80
7F80
7F80
F000
F000
F000
F000
F000
F000
F000
F000
F000
F000
F000
F000
F000
F000
F000
F000
F000
F000
F000
F000
F000
F000
F000
F000
F000
F000
F000
F000
F000
F000
F000
F000
F000
F000
F000
F000
F000
F000
F000
F000
ENDCHAR

STARTCHAR ldintegralbt
ENCODING 165
SWIDTH 720 0
DWIDTH 18 0
BBX 10 48 0 -8
BITMAP
03C0
03C0
03C0
03C0
03C0
03C0
03C0
03C0
03C0
03C0
03C0
03C0
03C0
03C0
03C0
03C0
03C0
03C0
03C0
03C0
03C0
03C0
03C0
03C0
03C0
03C0
03C0
03C0
03C0
03C0
03C0
03C0
03C0
03C0
03C0
03C0
03C0
03C0
03C0
03C0
03C0
03C0
FF80
FF80
FF80
FF80
FE00
FE00
ENDCHAR

STARTCHAR ldvertical
ENCODING 166
SWIDTH 720 0
DWIDTH 18 0
BBX 4 50 6 -10
BITMAP
F0
F0
F0
F0
F0
F0
F0
F0
F0
F0
F0
F0
F0
F0
F0
F0
F0
F0
F0
F0
F0
F0
F0
F0
F0
F0
F0
F0
F0
F0
F0
F0
F0
F0
F0
F0
F0
F0
F0
F0
F0
F0
F0
F0
F0
F0
F0
F0
F0
F0
ENDCHAR

STARTCHAR ldbracketlfttp
ENCODING 167
SWIDTH 720 0
DWIDTH 18 0
BBX 9 46 6 -10
BITMAP
FF80
FF80
FF80
FF80
FF80
FF80
F000
F000
F000
F000
F000
F000
F000
F000
F000
F000
F000
F000
F000
F000
F000
F000
F000
F000
F000
F000
F000
F000
F000
F000
F000
F000
F000
F000
F000
F000
F000
F000
F000
F000
F000
F000
F000
F000
F000
F000
ENDCHAR

STARTCHAR ldbracketlftbt
ENCODING 168
SWIDTH 720 0
DWIDTH 18 0
BBX 9 48 6 -8
BITMAP
F000
F000
F000
F000
F000
F000
F000
F000
F000
F000
F000
F000
F000
F000
F000
F000
F000
F000
F000
F000
F000
F000
F000
F000
F000
F000
F000
F000
F000
F000
F000
F000
F000
F000
F000
F000
F000
F000
F000
F000
F000
F000
FF80
FF80
FF80
FF80
FF80
FF80
ENDCHAR

STARTCHAR ldbracketrttp
ENCODING 169
SWIDTH 720 0
DWIDTH 18 0
BBX 9 46 1 -10
BITMAP
FF80
FF80
FF80
FF80
FF80
FF80
0780
0780
0780
0780
0780
0780
0780
0780
0780
0780
0780
0780
0780
0780
0780
0780
0780
0780
0780
0780
0780
0780
0780
0780
0780
0780
0780
0780
0780
0780
0780
0780
0780
0780
0780
0780
0780
0780
0780
0780
ENDCHAR

STARTCHAR ldbracketrtbt
ENCODING 170
SWIDTH 720 0
DWIDTH 18 0
BBX 9 48 1 -8
BITMAP
0780
0780
0780
0780
0780
0780
0780
0780
0780
0780
0780
0780
0780
0780
0780
0780
0780
0780
0780
0780
0780
0780
0780
0780
0780
0780
0780
0780
0780
0780
0780
0780
0780
0780
0780
0780
0780
0780
0780
0780
0780
0780
FF80
FF80
FF80
FF80
FF80
FF80
ENDCHAR

STARTCHAR ldbracelfttp
ENCODING 171
SWIDTH 720 0
DWIDTH 18 0
BBX 9 46 6 -10
BITMAP
1F80
1F80
7F80
7F80
7F80
7F80
F800
F800
F000
F000
F000
F000
F000
F000
F000
F000
F000
F000
F000
F000
F000
F000
F000
F000
F000
F000
F000
F000
F000
F000
F000
F000
F000
F000
F000
F000
F000
F000
F000
F000
F000
F000
F000
F000
F000
F000
ENDCHAR

STARTCHAR ldbracelftbt
ENCODING 172
SWIDTH 720 0
DWIDTH 18 0
BBX 9 48 6 -8
BITMAP
F000
F000
F000
F000
F000
F000
F000
F000
F000
F000
F000
F000
F000
F000
F000
F000
F000
F000
F000
F000
F000
F000
F000
F000
F000
F000
F000
F000
F000
F000
F000
F000
F000
F000
F000
F000
F000
F000
F000
F000
F800
F800
7F80
7F80
7F80
7F80
1F80
1F80
ENDCHAR

STARTCHAR ldbracerttp
ENCODING 173
SWIDTH 720 0
DWIDTH 18 0
BBX 9 46 1 -10
BITMAP
FC00
FC00
FF00
FF00
FF00
FF00
0F00
0F00
0780
0780
0780
0780
0780
0780
0780
0780
0780
0780
0780
0780
0780
0780
0780
0780
0780
0780
0780
0780
0780
0780
0780
0780
0780
0780
0780
0780
0780
0780
0780
0780
0780
0780
0780
0780
0780
0780
ENDCHAR

STARTCHAR ldbracertbt
ENCODING 174
SWIDTH 720 0
DWIDTH 18 0
BBX 9 48 1 -8
BITMAP
0780
0780
0780
0780
0780
0780
0780
0780
0780
0780
0780
0780
0780
0780
0780
0780
0780
0780
0780
0780
0780
0780
0780
0780
0780
0780
0780
0780
0780
0780
0780
0780
0780
0780
0780
0780
0780
0780
0780
0780
0F00
0F00
FF00
FF00
FF00
FF00
FC00
FC00
ENDCHAR

STARTCHAR ldbracelftmid
ENCODING 175
SWIDTH 720 0
DWIDTH 18 0
BBX 9 50 1 -10
BITMAP
0780
0780
0780
0780
0780
0780
0780
0780
0780
0780
0780
0780
0780
0780
0780
0780
0780
0780
0780
0780
0780
0780
0700
0700
0F00
0F00
FC00
FC00
FC00
FC00
0F00
0F00
0780
0780
0780
0780
0780
0780
0780
0780
0780
0780
0780
0780
0780
0780
0780
0780
0780
0780
ENDCHAR

STARTCHAR ldbracertmid
ENCODING 176
SWIDTH 720 0
DWIDTH 18 0
BBX 9 50 6 -10
BITMAP
F000
F000
F000
F000
F000
F000
F000
F000
F000
F000
F000
F000
F000
F000
F000
F000
F000
F000
F000
F000
F000
F000
7000
7000
7800
7800
1F80
1F80
1F80
1F80
7800
7800
7000
7000
F000
F000
F000
F000
F000
F000
F000
F000
F000
F000
F000
F000
F000
F000
F000
F000
ENDCHAR

STARTCHAR ldsigmalfttp
ENCODING 177
SWIDTH 720 0
DWIDTH 18 0
BBX 12 26 6 -10
BITMAP
FFF0
FFF0
FFF0
FFF0
F000
F000
7000
7000
3800
3800
3C00
3C00
1E00
1E00
0E00
0E00
0F00
0F00
0780
0780
0380
03C0
03C0
01E0
01E0
00F0
ENDCHAR

STARTCHAR ldsigmalftbt
ENCODING 178
SWIDTH 720 0
DWIDTH 18 0
BBX 11 28 7 12
BITMAP
00E0
00E0
01E0
01C0
03C0
03C0
0780
0780
0700
0700
0E00
0E00
1E00
1E00
1C00
1C00
3C00
3C00
7800
7800
F000
F000
E000
E000
FFE0
FFE0
FFE0
FFE0
ENDCHAR

STARTCHAR ldbackslash
ENCODING 179
SWIDTH 720 0
DWIDTH 18 0
BBX 18 50 0 -10
BITMAP
800000
800000
C00000
C00000
C00000
C00000
E00000
E00000
F00000
F00000
700000
700000
380000
380000
1C0000
1C0000
1C0000
1C0000
0E0000
0E0000
070000
070000
070000
070000
038000
038000
01C000
01C000
01C000
01C000
00E000
00E000
00F000
00F000
007000
007000
003800
003800
003C00
003C00
001C00
001E00
000E00
000E00
000F00
000700
000780
000380
0003C0
0001C0
ENDCHAR

STARTCHAR ldslash
ENCODING 180
SWIDTH 720 0
DWIDTH 18 0
BBX 18 50 0 -10
BITMAP
0001C0
0001C0
0003C0
0003C0
000380
000380
000780
000780
000700
000700
000E00
000E00
001E00
001E00
003C00
003C00
003800
003800
007800
007800
007000
007000
00E000
00E000
01E000
01E000
03C000
03C000
038000
038000
078000
078000
0F0000
0F0000
0E0000
0E0000
1E0000
1E0000
3C0000
3C0000
380000
380000
700000
700000
F00000
F00000
E00000
E00000
C00000
C00000
ENDCHAR

STARTCHAR ldsigmarttp
ENCODING 181
SWIDTH 720 0
DWIDTH 18 0
BBX 16 10 0 6
BITMAP
FFFF
FFFF
FFFF
FFFF
0007
0007
0007
0007
0007
0007
ENDCHAR

STARTCHAR ldsigmartbt
ENCODING 182
SWIDTH 720 0
DWIDTH 18 0
BBX 16 12 0 12
BITMAP
0007
0007
0007
0007
0007
0007
0007
0007
FFFF
FFFF
FFFF
FFFF
ENDCHAR

STARTCHAR ldsigmamid
ENCODING 183
SWIDTH 720 0
DWIDTH 18 0
BBX 9 50 0 -10
BITMAP
8000
8000
C000
C000
E000
E000
F000
F000
7000
7000
7800
7800
3C00
3C00
1C00
1C00
1E00
1E00
0F00
0F00
0780
0780
0380
0380
0380
0380
0380
0380
0780
0780
0F00
0F00
1E00
1E00
1C00
1C00
3C00
3C00
7800
7800
7000
7000
F000
F000
E000
E000
C000
C000
8000
8000
ENDCHAR

STARTCHAR lessequal
ENCODING 188
SWIDTH 720 0
DWIDTH 18 0
BBX 14 28 1 0
BITMAP
001C
001C
00FC
00FC
07FC
07FC
3FC0
3FC0
FC00
FC00
FC00
FC00
3FC0
3FC0
07FC
07FC
00FC
00FC
001C
001C
0000
0000
FFFC
FFFC
FFFC
FFFC
FFFC
FFFC
ENDCHAR

STARTCHAR notequal
ENCODING 189
SWIDTH 720 0
DWIDTH 18 0
BBX 14 26 1 -2
BITMAP
0070
0070
00F0
00F0
00E0
00E0
FFFC
FFFC
FFFC
FFFC
0380
0380
0700
0700
0E00
0E00
FFFC
FFFC
FFFC
FFFC
1C00
1C00
3800
3800
3800
3800
ENDCHAR

STARTCHAR greaterequal
ENCODING 190
SWIDTH 720 0
DWIDTH 18 0
BBX 14 28 1 0
BITMAP
E000
E000
FC00
FC00
FF80
FF80
0FF0
0FF0
00FC
00FC
00FC
00FC
0FF0
0FF0
FF80
FF80
FC00
FC00
E000
E000
0000
0000
FFFC
FFFC
FFFC
FFFC
FFFC
FFFC
ENDCHAR

STARTCHAR integral
ENCODING 191
SWIDTH 720 0
DWIDTH 18 0
BBX 14 48 1 -10
BITMAP
00F8
00F8
03FC
03FC
038C
038C
078C
078C
0780
0780
0780
0780
0780
0780
0780
0780
0780
0780
0780
0780
0780
0780
0780
0780
0780
0780
0780
0780
0780
0780
0780
0780
0780
0780
0780
0780
0780
0780
0780
0780
C780
C780
C700
C700
FF00
FF00
7C00
7C00
ENDCHAR

STARTCHAR therefore
ENCODING 192
SWIDTH 720 0
DWIDTH 18 0
BBX 16 20 0 0
BITMAP
03E0
03E0
07F0
07F0
07F0
07F0
03E0
03E0
0000
0000
0000
0000
7C3E
7C3E
FE7F
FE7F
FE7F
FE7F
7C3E
7C3E
ENDCHAR

STARTCHAR proportional
ENCODING 193
SWIDTH 720 0
DWIDTH 18 0
BBX 14 22 1 2
BITMAP
3E3C
3E3C
7FFC
7FFC
F3E0
F3E0
F3E0
F3E0
E1C0
E1C0
E1C0
E1C0
E1E0
E1E0
F3E0
F3E0
73F0
73F0
3F7C
3F7C
3E3C
3E3C
ENDCHAR

STARTCHAR infinity
ENCODING 194
SWIDTH 720 0
DWIDTH 18 0
BBX 16 22 0 2
BITMAP
3E78
3E78
7FFE
7FFE
F3CF
F3CF
E387
E387
E387
E387
E187
E187
E1C7
E1C7
E1C7
E1C7
F3EE
F3EE
3E7E
3E7E
3E7C
3E7C
ENDCHAR

STARTCHAR divide
ENCODING 195
SWIDTH 720 0
DWIDTH 18 0
BBX 14 28 1 0
BITMAP
0700
0700
0F80
0F80
0F80
0F80
0700
0700
0000
0000
0000
0000
FFFC
FFFC
FFFC
FFFC
0000
0000
0000
0000
0700
0700
0F80
0F80
0F80
0F80
0700
0700
ENDCHAR

STARTCHAR Delta
ENCODING 196
SWIDTH 720 0
DWIDTH 18 0
BBX 15 30 1 0
BITMAP
0380
0380
07C0
07C0
07C0
07C0
0FE0
0FE0
1EF0
1EF0
1EF0
1EF0
3C78
3C78
3C78
3C78
783C
783C
783C
783C
F01E
F01E
F00E
F00E
E00E
E00E
FFFE
FFFE
FFFE
FFFE
ENDCHAR

STARTCHAR gradient
ENCODING 197
SWIDTH 720 0
DWIDTH 18 0
BBX 15 30 1 0
BITMAP
FFFE
FFFE
FFFE
FFFE
FFFE
FFFE
F01E
F01E
F01E
F01E
783C
783C
783C
783C
3C78
3C78
3C78
3C78
1EF0
1EF0
1EF0
1EF0
0FE0
0FE0
07C0
07C0
07C0
07C0
0380
0380
ENDCHAR

STARTCHAR Phi
ENCODING 198
SWIDTH 720 0
DWIDTH 18 0
BBX 14 30 1 0
BITMAP
3FF0
3FF0
3FF0
3FF0
0780
0780
1FE0
1FE0
7FF8
7FF8
E79C
E79C
C78C
C78C
C78C
C78C
E79C
E79C
7FF8
7FF8
3FF0
3FF0
0780
0780
0780
0780
3FF0
3FF0
3FF0
3FF0
ENDCHAR

STARTCHAR Gamma
ENCODING 199
SWIDTH 720 0
DWIDTH 18 0
BBX 13 30 2 0
BITMAP
FFF8
FFF8
FFF8
FFF8
3C38
3C38
3C38
3C38
3C38
3C38
3C38
3C38
3C00
3C00
3C00
3C00
3C00
3C00
3C00
3C00
3C00
3C00
3C00
3C00
3C00
3C00
FF80
FF80
FF80
FF80
ENDCHAR

STARTCHAR similar
ENCODING 200
SWIDTH 720 0
DWIDTH 18 0
BBX 14 12 1 8
BITMAP
3C0C
3C0C
7E0C
7E0C
FF1C
FF1C
E3FC
E3FC
C1F8
C1F8
C0F0
C0F0
ENDCHAR

STARTCHAR approxequal
ENCODING 201
SWIDTH 720 0
DWIDTH 18 0
BBX 14 20 1 2
BITMAP
380C
380C
7E0C
7E0C
FF3C
FF3C
C7F8
C7F8
C1F0
C1F0
0000
0000
0000
0000
0000
0000
FFFC
FFFC
FFFC
FFFC
ENDCHAR

STARTCHAR Theta
ENCODING 202
SWIDTH 720 0
DWIDTH 18 0
BBX 14 30 1 0
BITMAP
0FE0
0FE0
3FF0
3FF0
7878
7878
7038
7038
F03C
F03C
F33C
F33C
F33C
F33C
F33C
F33C
F33C
F33C
F33C
F33C
F03C
F03C
7038
7038
7878
7878
3FF0
3FF0
0FE0
0FE0
ENDCHAR

STARTCHAR multiply
ENCODING 203
SWIDTH 720 0
DWIDTH 18 0
BBX 14 18 1 6
BITMAP
F03C
F03C
7878
7878
3CF0
3CF0
1FE0
1FE0
0FC0
0FC0
1FE0
1FE0
3CF0
3CF0
7878
7878
F03C
F03C
ENDCHAR

STARTCHAR Lambda
ENCODING 204
SWIDTH 720 0
DWIDTH 18 0
BBX 14 30 1 0
BITMAP
0780
0780
0FC0
0FC0
0FC0
0FC0
1FE0
1FE0
1CE0
1CE0
3CF0
3CF0
3CF0
3CF0
7878
7878
7878
7878
7878
7878
F87C
F87C
F03C
F03C
F03C
F03C
F03C
F03C
F03C
F03C
ENDCHAR

STARTCHAR arrowdblboth
ENCODING 205
SWIDTH 720 0
DWIDTH 18 0
BBX 16 26 0 2
BITMAP
0C30
0C30
1C38
1C38
381C
381C
7FFE
7FFE
FFFF
FFFF
FFFF
FFFF
E007
E007
FFFF
FFFF
7FFE
7FFE
7FFE
7FFE
381C
381C
1C38
1C38
0C30
0C30
ENDCHAR

STARTCHAR arrowdblright
ENCODING 206
SWIDTH 720 0
DWIDTH 18 0
BBX 15 26 0 2
BITMAP
01C0
01C0
00E0
00E0
0070
0070
FFF8
FFF8
FFFC
FFFC
FFFE
FFFE
000E
000E
FFFE
FFFE
FFFC
FFFC
FFF8
FFF8
0070
0070
00E0
00E0
01C0
01C0
ENDCHAR

STARTCHAR equivalence
ENCODING 207
SWIDTH 720 0
DWIDTH 18 0
BBX 14 20 1 4
BITMAP
FFFC
FFFC
FFFC
FFFC
0000
0000
0000
0000
FFFC
FFFC
FFFC
FFFC
0000
0000
0000
0000
FFFC
FFFC
FFFC
FFFC
ENDCHAR

STARTCHAR Pi
ENCODING 208
SWIDTH 720 0
DWIDTH 18 0
BBX 14 30 1 0
BITMAP
FFFC
FFFC
FFFC
FFFC
3CF0
3CF0
3CF0
3CF0
3CF0
3CF0
3CF0
3CF0
3CF0
3CF0
3CF0
3CF0
3CF0
3CF0
3CF0
3CF0
3CF0
3CF0
3CF0
3CF0
3CF0
3CF0
3CF0
3CF0
3CF0
3CF0
ENDCHAR

STARTCHAR Psi
ENCODING 209
SWIDTH 720 0
DWIDTH 18 0
BBX 14 30 1 0
BITMAP
3FF0
3FF0
3FF0
3FF0
0780
0780
E79C
E79C
E79C
E79C
E79C
E79C
E79C
E79C
E79C
E79C
F7BC
F7BC
7FF8
7FF8
3FF0
3FF0
0780
0780
0780
0780
3FF0
3FF0
3FF0
3FF0
ENDCHAR

STARTCHAR Sigma
ENCODING 211
SWIDTH 720 0
DWIDTH 18 0
BBX 14 30 1 0
BITMAP
FFFC
FFFC
FFFC
FFFC
F81C
F81C
7C1C
7C1C
3E00
3E00
1F00
1F00
0F80
0F80
0780
0780
0F00
0F00
1E00
1E00
3C1C
3C1C
781C
781C
F01C
F01C
FFFC
FFFC
FFFC
FFFC
ENDCHAR

STARTCHAR radical
ENCODING 214
SWIDTH 720 0
DWIDTH 18 0
BBX 16 40 0 -6
BITMAP
000F
000F
000F
000F
000F
000F
001E
001E
001E
001E
001E
001E
F81E
F81E
F83C
F83C
FC3C
FC3C
3C3C
3C3C
3E3C
3E3C
1E78
1E78
1F78
1F78
0F78
0F78
0FF8
0FF8
07F0
07F0
07F0
07F0
03F0
03F0
03E0
03E0
01E0
01E0
ENDCHAR

STARTCHAR Omega
ENCODING 215
SWIDTH 720 0
DWIDTH 18 0
BBX 14 30 1 0
BITMAP
0FC0
0FC0
3FF0
3FF0
7CF8
7CF8
7878
7878
F03C
F03C
F03C
F03C
F03C
F03C
F03C
F03C
F03C
F03C
7878
7878
3870
3870
1CE0
1CE0
0CC0
0CC0
7CF8
7CF8
7CF8
7CF8
ENDCHAR

STARTCHAR Xi
ENCODING 216
SWIDTH 720 0
DWIDTH 18 0
BBX 14 30 1 0
BITMAP
FFFC
FFFC
FFFC
FFFC
F03C
F03C
F03C
F03C
0000
0000
3870
3870
3FF0
3FF0
3FF0
3FF0
3FF0
3FF0
3870
3870
0000
0000
F03C
F03C
F03C
F03C
FFFC
FFFC
FFFC
FFFC
ENDCHAR

STARTCHAR Upsilon1
ENCODING 217
SWIDTH 720 0
DWIDTH 18 0
BBX 14 30 1 0
BITMAP
E00C
E00C
F01C
F01C
F83C
F83C
7C78
7C78
3CF0
3CF0
1EE0
1EE0
1FC0
1FC0
0F80
0F80
0780
0780
0780
0780
0780
0780
0780
0780
0780
0780
3FF0
3FF0
3FF0
3FF0
ENDCHAR

STARTCHAR propersubset
ENCODING 218
SWIDTH 720 0
DWIDTH 18 0
BBX 14 30 1 0
BITMAP
0FFC
0FFC
3FFC
3FFC
7FFC
7FFC
7800
7800
F000
F000
F000
F000
F000
F000
F000
F000
F000
F000
F000
F000
F000
F000
7800
7800
7FFC
7FFC
3FFC
3FFC
0FFC
0FFC
ENDCHAR

STARTCHAR propersuperset
ENCODING 219
SWIDTH 720 0
DWIDTH 18 0
BBX 14 30 1 0
BITMAP
FFC0
FFC0
FFF0
FFF0
FFF8
FFF8
0078
0078
003C
003C
003C
003C
003C
003C
003C
003C
003C
003C
003C
003C
003C
003C
0078
0078
FFF8
FFF8
FFF0
FFF0
FFC0
FFC0
ENDCHAR

STARTCHAR intersection
ENCODING 220
SWIDTH 720 0
DWIDTH 18 0
BBX 14 30 1 0
BITMAP
0FC0
0FC0
3FF0
3FF0
3FF0
3FF0
7878
7878
7038
7038
F03C
F03C
E01C
E01C
E01C
E01C
E01C
E01C
E01C
E01C
E01C
E01C
E01C
E01C
E01C
E01C
E01C
E01C
E01C
E01C
ENDCHAR

STARTCHAR union
ENCODING 221
SWIDTH 720 0
DWIDTH 18 0
BBX 14 30 1 0
BITMAP
E01C
E01C
E01C
E01C
E01C
E01C
E01C
E01C
E01C
E01C
E01C
E01C
E01C
E01C
E01C
E01C
E01C
E01C
F03C
F03C
7038
7038
7878
7878
3FF0
3FF0
3FF0
3FF0
0FC0
0FC0
ENDCHAR

STARTCHAR logicaland
ENCODING 222
SWIDTH 720 0
DWIDTH 18 0
BBX 16 24 0 2
BITMAP
03C0
03C0
07E0
07E0
07E0
07E0
0FF0
0FF0
1E78
1E78
1E78
1E78
3C3C
3C3C
3C3C
3C3C
7C3E
7C3E
781E
781E
F81F
F81F
F81F
F81F
ENDCHAR

STARTCHAR logicalor
ENCODING 223
SWIDTH 720 0
DWIDTH 18 0
BBX 16 24 0 2
BITMAP
F81F
F81F
F81F
F81F
781E
781E
7C3E
7C3E
3C3C
3C3C
3C3C
3C3C
1E78
1E78
1E78
1E78
0FF0
0FF0
07E0
07E0
07E0
07E0
03C0
03C0
ENDCHAR

STARTCHAR logicalnot
ENCODING 224
SWIDTH 720 0
DWIDTH 18 0
BBX 13 10 1 10
BITMAP
FFF8
FFF8
FFF8
FFF8
0078
0078
0078
0078
0078
0078
ENDCHAR

STARTCHAR alpha
ENCODING 225
SWIDTH 720 0
DWIDTH 18 0
BBX 14 24 1 0
BITMAP
0F8C
0F8C
3FFC
3FFC
79F8
79F8
78F8
78F8
F0F0
F0F0
F0F0
F0F0
F0F0
F0F0
F1F0
F1F0
F1F0
F1F0
7FFC
7FFC
7F3C
7F3C
1E1C
1E1C
ENDCHAR

STARTCHAR beta
ENCODING 226
SWIDTH 720 0
DWIDTH 18 0
BBX 15 44 0 -10
BITMAP
01F0
01F0
07FC
07FC
0FFC
0FFC
0F1E
0F1E
1E1E
1E1E
1E1E
1E1E
1E1E
1E1E
3E3C
3E3C
3FF0
3FF0
3FFC
3FFC
3C3E
3C3E
7C1E
7C1E
7C1E
7C1E
7C3E
7C3E
7FFC
7FFC
7FFC
7FFC
71F0
71F0
F000
F000
F000
F000
F000
F000
F000
F000
F000
F000
ENDCHAR

STARTCHAR chi
ENCODING 227
SWIDTH 720 0
DWIDTH 18 0
BBX 15 32 0 -8
BITMAP
1E0E
1E0E
1E0E
1E0E
1F1E
1F1E
0F3E
0F3E
073C
073C
07F8
07F8
03F0
03F0
03F0
03F0
07C0
07C0
1FE0
1FE0
1FE0
1FE0
3CF0
3CF0
78F0
78F0
F878
F878
F078
F078
C078
C078
ENDCHAR

STARTCHAR delta
ENCODING 228
SWIDTH 720 0
DWIDTH 18 0
BBX 14 34 1 0
BITMAP
07F0
07F0
1FF0
1FF0
3FF0
3FF0
3C00
3C00
3E00
3E00
1F80
1F80
07C0
07C0
1FF0
1FF0
3FF8
3FF8
787C
787C
F03C
F03C
F03C
F03C
F03C
F03C
F87C
F87C
7FF8
7FF8
7FF0
7FF0
1FC0
1FC0
ENDCHAR

STARTCHAR epsilon
ENCODING 229
SWIDTH 720 0
DWIDTH 18 0
BBX 13 24 2 0
BITMAP
0FF8
0FF8
3FF0
3FF0
7C00
7C00
7800
7800
F000
F000
FFF0
FFF0
FFE0
FFE0
F000
F000
F000
F000
FC00
FC00
7FE0
7FE0
3FC0
3FC0
ENDCHAR

STARTCHAR phi
ENCODING 230
SWIDTH 720 0
DWIDTH 18 0
BBX 15 44 1 -10
BITMAP
00C0
00C0
00C0
00C0
00C0
00C0
00C0
00C0
00C0
00C0
0FF0
0FF0
3FFC
3FFC
799C
799C
798E
798E
F18E
F18E
F18E
F18E
F18E
F18E
F19E
F19E
F19E
F19E
79BC
79BC
3FF8
3FF8
1FE0
1FE0
0300
0300
0300
0300
0300
0300
0300
0300
0300
0300
ENDCHAR

STARTCHAR gamma
ENCODING 231
SWIDTH 720 0
DWIDTH 18 0
BBX 16 32 0 -8
BITMAP
F80F
F80F
7C0F
7C0F
3C1E
3C1E
3E1E
3E1E
1E3C
1E3C
1F3C
1F3C
0F78
0F78
07F8
07F8
07F0
07F0
03E0
03E0
03E0
03E0
03C0
03C0
0F80
0F80
1F80
1F80
3F00
3F00
1E00
1E00
ENDCHAR

STARTCHAR eta
ENCODING 232
SWIDTH 720 0
DWIDTH 18 0
BBX 14 32 1 -8
BITMAP
F9F0
F9F0
FBF8
FBF8
3E3C
3E3C
3E3C
3E3C
3C3C
3C3C
7C7C
7C7C
7C7C
7C7C
7878
7878
7878
7878
F8F8
F8F8
F8F8
F8F8
F0F8
F0F8
00F0
00F0
01F0
01F0
01F0
01F0
01F0
01F0
ENDCHAR

STARTCHAR iota
ENCODING 233
SWIDTH 720 0
DWIDTH 18 0
BBX 11 24 3 0
BITMAP
FF80
FF80
FF80
FF80
0F80
0F80
1F00
1F00
1F00
1F00
3E00
3E00
3E00
3E00
7C00
7C00
7C00
7C00
7CE0
7CE0
7FC0
7FC0
3F00
3F00
ENDCHAR

STARTCHAR theta
ENCODING 234
SWIDTH 720 0
DWIDTH 18 0
BBX 14 34 1 0
BITMAP
07E0
07E0
0FF0
0FF0
3FF8
3FF8
3C7C
3C7C
783C
783C
783C
783C
F03C
F03C
FFFC
FFFC
FFFC
FFFC
F03C
F03C
F03C
F03C
F07C
F07C
F078
F078
F8F8
F8F8
7FF0
7FF0
3FE0
3FE0
1F80
1F80
ENDCHAR

STARTCHAR kappa
ENCODING 235
SWIDTH 720 0
DWIDTH 18 0
BBX 15 24 1 0
BITMAP
3E3E
3E3E
3E7C
3E7C
3C70
3C70
3CE0
3CE0
7FC0
7FC0
7FC0
7FC0
7DF0
7DF0
7DF0
7DF0
7CF8
7CF8
F87C
F87C
F83C
F83C
F83E
F83E
ENDCHAR

STARTCHAR lambda
ENCODING 236
SWIDTH 720 0
DWIDTH 18 0
BBX 14 34 1 0
BITMAP
0FC0
0FC0
0FC0
0FC0
03C0
03C0
03E0
03E0
01E0
01E0
01E0
01E0
01E0
01E0
03F0
03F0
03F0
03F0
07F0
07F0
0FF8
0FF8
0EF8
0EF8
1EF8
1EF8
3C7C
3C7C
7C7C
7C7C
787C
787C
F87C
F87C
ENDCHAR

STARTCHAR nu
ENCODING 238
SWIDTH 720 0
DWIDTH 18 0
BBX 14 24 1 0
BITMAP
FE3C
FE3C
FE3C
FE3C
3E3C
3E3C
3E3C
3E3C
3E78
3E78
3E78
3E78
3EF0
3EF0
3EF0
3EF0
3FE0
3FE0
3FC0
3FC0
3F80
3F80
3E00
3E00
ENDCHAR

STARTCHAR partialdiff
ENCODING 239
SWIDTH 720 0
DWIDTH 18 0
BBX 14 34 1 0
BITMAP
7C00
7C00
7F80
7F80
7FE0
7FE0
01F0
01F0
0078
0078
0078
0078
0F3C
0F3C
3FFC
3FFC
7FFC
7FFC
7C7C
7C7C
F83C
F83C
F83C
F83C
F83C
F83C
7C78
7C78
7FF8
7FF8
3FF0
3FF0
0FC0
0FC0
ENDCHAR

STARTCHAR pi
ENCODING 240
SWIDTH 720 0
DWIDTH 18 0
BBX 15 24 1 0
BITMAP
FFFE
FFFE
FFFE
FFFE
3C78
3C78
3C78
3C78
3C78
3C78
7C78
7C78
78F0
78F0
78F0
78F0
F8F0
F8F0
F1E0
F1E0
F1E0
F1E0
F1E0
F1E0
ENDCHAR

STARTCHAR psi
ENCODING 241
SWIDTH 720 0
DWIDTH 18 0
BBX 15 44 1 -10
BITMAP
00C0
00C0
00C0
00C0
00C0
00C0
00C0
00C0
01C0
01C0
79DE
79DE
799E
799E
799E
799E
799E
799E
7B9E
7B9E
F39C
F39C
F33C
F33C
F33C
F33C
F33C
F33C
7338
7338
7FF8
7FF8
1FE0
1FE0
0600
0600
0600
0600
0600
0600
0600
0600
0600
0600
ENDCHAR

STARTCHAR rho
ENCODING 242
SWIDTH 720 0
DWIDTH 18 0
BBX 15 32 0 -8
BITMAP
03F8
03F8
0FFC
0FFC
1F3E
1F3E
1E1E
1E1E
3E1E
3E1E
3C1E
3C1E
3C1E
3C1E
3C3E
3C3E
783C
783C
7CF8
7CF8
7FF0
7FF0
7FC0
7FC0
7800
7800
F000
F000
F000
F000
F000
F000
ENDCHAR

STARTCHAR sigma
ENCODING 243
SWIDTH 720 0
DWIDTH 18 0
BBX 16 24 1 0
BITMAP
07FF
07FF
1FFF
1FFF
3E78
3E78
7C3C
7C3C
7C3C
7C3C
F83C
F83C
F83C
F83C
F87C
F87C
F87C
F87C
7CF8
7CF8
7FF0
7FF0
1FC0
1FC0
ENDCHAR

STARTCHAR tau
ENCODING 244
SWIDTH 720 0
DWIDTH 18 0
BBX 15 24 1 0
BITMAP
FFFE
FFFE
FFFE
FFFE
0F80
0F80
1F00
1F00
1F00
1F00
1F00
1F00
3E00
3E00
3E00
3E00
3E00
3E00
3F1E
3F1E
1FFC
1FFC
07F0
07F0
ENDCHAR

STARTCHAR florin
ENCODING 246
SWIDTH 720 0
DWIDTH 18 0
BBX 15 38 1 -8
BITMAP
007E
007E
00FE
00FE
01E0
01E0
01C0
01C0
1FFC
1FFC
1FFC
1FFC
03C0
03C0
03C0
03C0
03C0
03C0
03C0
03C0
07C0
07C0
0780
0780
0780
0780
0780
0780
0F80
0F80
0F00
0F00
0F00
0F00
FE00
FE00
F800
F800
ENDCHAR

STARTCHAR omega
ENCODING 247
SWIDTH 720 0
DWIDTH 18 0
BBX 15 24 1 0
BITMAP
3C1E
3C1E
79DE
79DE
79DE
79DE
73CE
73CE
F3CE
F3CE
F38E
F38E
E38C
E38C
E79C
E79C
E79C
E79C
FFF8
FFF8
FCF8
FCF8
7CF0
7CF0
ENDCHAR

STARTCHAR xi
ENCODING 248
SWIDTH 720 0
DWIDTH 18 0
BBX 14 42 2 -10
BITMAP
FFFC
FFFC
FFFC
FFFC
07C0
07C0
1F00
1F00
3C00
3C00
3C00
3C00
3E00
3E00
0FC0
0FC0
3FC0
3FC0
7E00
7E00
F800
F800
F000
F000
F800
F800
FFC0
FFC0
7FF8
7FF8
1FFC
1FFC
007C
007C
003C
003C
003C
003C
0078
0078
03E0
03E0
ENDCHAR

STARTCHAR upsilon
ENCODING 249
SWIDTH 720 0
DWIDTH 18 0
BBX 14 24 1 0
BITMAP
7C3C
7C3C
7C3C
7C3C
7C3C
7C3C
7C3C
7C3C
F878
F878
F878
F878
F878
F878
F8F8
F8F8
FCF0
FCF0
7FF0
7FF0
7FE0
7FE0
1F80
1F80
ENDCHAR

STARTCHAR zeta
ENCODING 250
SWIDTH 720 0
DWIDTH 18 0
BBX 14 42 2 -10
BITMAP
7FFC
7FFC
7FFC
7FFC
00F0
00F0
01E0
01E0
0780
0780
1F00
1F00
3E00
3E00
7E00
7E00
7C00
7C00
F800
F800
F800
F800
F800
F800
FC00
FC00
7FF0
7FF0
7FF8
7FF8
1FFC
1FFC
007C
007C
003C
003C
003C
003C
0078
0078
01F0
01F0
ENDCHAR

STARTCHAR arrowleft
ENCODING 251
SWIDTH 720 0
DWIDTH 18 0
BBX 15 20 1 4
BITMAP
0300
0300
0F00
0F00
3C00
3C00
7C00
7C00
FFFE
FFFE
FFFE
FFFE
7C00
7C00
3C00
3C00
0F00
0F00
0300
0300
ENDCHAR

STARTCHAR arrowup
ENCODING 252
SWIDTH 720 0
DWIDTH 18 0
BBX 13 34 2 -2
BITMAP
0200
0200
0700
0700
0F80
0F80
1FC0
1FC0
3FE0
3FE0
7FF0
7FF0
E738
E738
C718
C718
0700
0700
0700
0700
0700
0700
0700
0700
0700
0700
0700
0700
0700
0700
0700
0700
0700
0700
ENDCHAR

STARTCHAR arrowright
ENCODING 253
SWIDTH 720 0
DWIDTH 18 0
BBX 15 20 0 4
BITMAP
0180
0180
01E0
01E0
0078
0078
007C
007C
FFFE
FFFE
FFFE
FFFE
007C
007C
0078
0078
01E0
01E0
0180
0180
ENDCHAR

STARTCHAR arrowdown
ENCODING 254
SWIDTH 720 0
DWIDTH 18 0
BBX 13 34 2 -2
BITMAP
0700
0700
0700
0700
0700
0700
0700
0700
0700
0700
0700
0700
0700
0700
0700
0700
0700
0700
C718
C718
E738
E738
7FF0
7FF0
3FE0
3FE0
1FC0
1FC0
0F80
0F80
0700
0700
0200
0200
ENDCHAR
ENDFONT
